<?xml version="1.0" standalone="no"?><!DOCTYPE svg PUBLIC "-//W3C//DTD SVG 1.1//EN" "http://www.w3.org/Graphics/SVG/1.1/DTD/svg11.dtd"><svg t="1651611942677" class="icon" viewBox="0 0 1024 1024" version="1.1" xmlns="http://www.w3.org/2000/svg" p-id="5878" width="128" height="128" xmlns:xlink="http://www.w3.org/1999/xlink"><defs><style type="text/css">@font-face { font-family: feedback-iconfont; src: url("//at.alicdn.com/t/font_1031158_u69w8yhxdu.woff2?t=1630033759944") format("woff2"), url("//at.alicdn.com/t/font_1031158_u69w8yhxdu.woff?t=1630033759944") format("woff"), url("//at.alicdn.com/t/font_1031158_u69w8yhxdu.ttf?t=1630033759944") format("truetype"); }
</style></defs><path d="M679.3216 846.9504h-358.4a112.0768 112.0768 0 0 1-111.9744-111.9232v-283.648a112.0768 112.0768 0 0 1 112.128-111.9744h358.4a112.0768 112.0768 0 0 1 111.9744 111.9744v283.648a112.0768 112.0768 0 0 1-112.128 111.9232zM321.0752 384a67.2256 67.2256 0 0 0-67.1744 67.3792v283.648a67.2256 67.2256 0 0 0 67.1744 67.1744h358.4a67.2256 67.2256 0 0 0 67.1744-67.1744v-283.648A67.2256 67.2256 0 0 0 679.3216 384z" fill="#FEA20C" p-id="5879" data-spm-anchor-id="a313x.7781069.0.i29" class="selected"></path><path d="M671.8976 346.88h-44.8V227.4304a67.2768 67.2768 0 0 0-67.1744-67.1744H440.32a67.2768 67.2768 0 0 0-67.0208 67.1744v119.4496h-44.7488V227.4304A112.0768 112.0768 0 0 1 440.32 115.456h119.4496a112.0768 112.0768 0 0 1 111.9744 111.9744z" fill="#FEA20C" p-id="5880" data-spm-anchor-id="a313x.7781069.0.i30" class="selected"></path><path d="M608.4096 733.5424a22.3744 22.3744 0 0 1-22.3744-22.3744V463.1552a22.4256 22.4256 0 1 1 44.8 0v248.0128a22.4256 22.4256 0 0 1-22.4256 22.3744zM391.9872 733.5424a22.4256 22.4256 0 0 1-22.4256-22.3744V463.1552a22.4256 22.4256 0 1 1 44.8 0v248.0128a22.3744 22.3744 0 0 1-22.3744 22.3744z" fill="#35E8FA" p-id="5881" data-spm-anchor-id="a313x.7781069.0.i26" class=""></path><path d="M380.7744 891.7504A22.3744 22.3744 0 0 1 358.4 869.376v-44.8a22.3744 22.3744 0 1 1 44.7488 0v44.8a22.3744 22.3744 0 0 1-22.3744 22.3744zM619.52 891.7504a22.3744 22.3744 0 0 1-22.3744-22.3744v-44.8a22.3744 22.3744 0 0 1 44.7488 0v44.8a22.3744 22.3744 0 0 1-22.3744 22.3744z" fill="#71EAB1" p-id="5882" data-spm-anchor-id="a313x.7781069.0.i24" class=""></path></svg>